<?xml version="1.0" encoding="utf-8"?>
<!-- Generator: Adobe Illustrator 19.2.1, SVG Export Plug-In . SVG Version: 6.00 Build 0)  -->
<svg version="1.1" id="Layer_1" xmlns="http://www.w3.org/2000/svg" xmlns:xlink="http://www.w3.org/1999/xlink" x="0px" y="0px"
	 viewBox="0 0 511.9 415" style="enable-background:new 0 0 511.9 415;" xml:space="preserve">
<style type="text/css">
	.st0{fill:#FFFFFF;stroke:#FFFFFF;stroke-width:6.2807;stroke-miterlimit:10;}
</style>
<g>
	<g>
		<path class="st0" d="M483.7,244.4c-3-5.3-7.3-9.4-12.6-11.8c-5.5-2.5-12.2-3.3-19.7-1.9c-17.9,3.2-34.2,16.5-46.1,29.9
			c11.9,13.4,28.1,26.7,46.1,29.9c7.5,1.3,14.2,0.5,19.7-1.9c5.3-2.4,9.6-6.5,12.6-11.8C489.5,266.4,489.5,254.7,483.7,244.4
			L483.7,244.4z M206,46.2c1.8-13.3,6.9-23.7,15.3-31c8.7-7.7,20-11.5,34-11.5c14.3,0,26.1,3.9,35.3,11.8
			c9.2,7.9,13.8,17.8,13.8,29.8c0,6-1.4,11.8-4,17.4c-2.7,5.6-9,12.8-19,21.6c-7.6,6.8-12.4,12.2-14.4,16.1
			c-1.3,2.6-2.3,10.7-2.8,18.7L391.2,246c19.6-21.3,39.3-32.3,56.7-35.4c11.7-2.1,22.4-0.7,31.5,3.4c9.3,4.2,16.9,11.2,22,20.3
			c9.3,16.5,9.3,35.7,0,52.2c-5.1,9.1-12.7,16.1-22,20.3c-9.1,4.1-19.9,5.5-31.5,3.4c-17.4-3.1-37.2-14-56.7-35.4L255.9,410.3
			L120.7,275c-19.6,21.3-39.3,32.3-56.7,35.4c-11.7,2.1-22.4,0.7-31.5-3.4c-9.3-4.2-16.9-11.2-22-20.3c-9.3-16.5-9.3-35.7,0-52.2
			c5.1-9.1,12.7-16.1,22-20.3c9.1-4.1,19.9-5.5,31.5-3.4c17.4,3.1,37.2,14,56.7,35.4L245.8,121c0.1-7.1,0.4-14.7,0.8-17.2
			c0.6-3.7,1.8-7.4,3.7-10.9c1.9-3.6,4.2-6.9,7.2-10c3-3.1,7.1-7,12.4-11.7c6.8-6,11.1-10.8,12.8-14.2c1.7-3.4,2.6-6.9,2.6-10.5
			c0-7.3-2.9-13.7-8.6-19.2c-5.8-5.5-12.8-8.3-21-8.3c-16.6,0-26.6,10-30.3,29.9c-0.1,5.3-4.4,9.7-9.8,9.7
			C208.9,58.6,204.3,52.2,206,46.2L206,46.2z M28.2,276.7c3,5.3,7.3,9.4,12.6,11.8c5.5,2.5,12.2,3.3,19.7,1.9
			c17.9-3.2,34.2-16.5,46.1-29.9c-11.9-13.4-28.1-26.7-46.1-29.9c-7.5-1.3-14.2-0.5-19.7,1.9c-5.3,2.4-9.6,6.5-12.6,11.8
			C22.4,254.7,22.4,266.4,28.2,276.7L28.2,276.7z M255.9,139.5l-121,121l121,121l121-121L255.9,139.5z"/>
	</g>
</g>
</svg>
