<svg version="1.2" xmlns="http://www.w3.org/2000/svg" viewBox="0 0 218 177" width="218" height="177">
	<title>Hanger_new logo-svg</title>
	<style>
		.s0 { fill: #74799f } 
		.s1 { fill: #191919;stroke: #191919;stroke-width: 2.7 } 
	</style>
	<g id="Layer">
		<g id="Layer">
			<g id="Layer">
				<path id="Layer" class="s0" d="m262.2 2.5h2.7v196.9h-2.7z"/>
			</g>
		</g>
		<g id="Layer">
			<g id="Layer">
				<path id="Layer" fill-rule="evenodd" class="s1" d="m88.1 20.6c0.8-5.7 2.9-10.1 6.5-13.2c3.7-3.3 8.5-4.9 14.4-4.9c6.1 0 11.1 1.7 15 5c3.9 3.4 5.9 7.6 5.9 12.6c0 2.5-0.6 5-1.7 7.4c-1.1 2.4-3.8 5.5-8.1 9.2c-3.2 2.9-5.3 5.2-6.1 6.8c-0.6 1.1-1 4.5-1.2 7.9l54 54c8.3-9.1 16.7-13.7 24.1-15c5-0.9 9.5-0.3 13.4 1.5c4 1.8 7.2 4.8 9.3 8.6c3.9 7 3.9 15.2 0 22.2c-2.2 3.9-5.4 6.9-9.3 8.6c-3.9 1.8-8.4 2.3-13.4 1.5c-7.4-1.3-15.8-6-24.1-15l-57.5 57.5l-57.5-57.5c-8.3 9.1-16.7 13.7-24.1 15c-5 0.9-9.5 0.3-13.4-1.5c-4-1.8-7.2-4.8-9.3-8.6c-3.9-7-3.9-15.2 0-22.2c2.2-3.9 5.4-6.9 9.3-8.6c3.9-1.8 8.4-2.3 13.4-1.5c7.4 1.3 15.8 6 24.1 15l53.2-53.2c0.1-3 0.2-6.3 0.3-7.3c0.2-1.6 0.8-3.1 1.6-4.6c0.8-1.5 1.8-2.9 3.1-4.3c1.3-1.3 3-3 5.3-5q4.4-3.9 5.4-6c0.7-1.5 1.1-2.9 1.1-4.4c0-3.1-1.2-5.8-3.7-8.2c-2.4-2.3-5.4-3.5-8.9-3.5c-7 0-11.3 4.2-12.9 12.7c0 2.3-1.9 4.1-4.2 4.1c-2.8 0.2-4.7-2.5-4-5.1zm118 84.3c-1.3-2.3-3.1-4-5.4-5c-2.3-1.1-5.2-1.4-8.4-0.8c-7.6 1.4-14.5 7-19.6 12.7c5.1 5.7 12 11.3 19.6 12.7c3.2 0.6 6 0.2 8.4-0.8c2.3-1 4.1-2.7 5.4-5c2.5-4.5 2.5-9.4 0-13.8zm-193.6 13.7c1.3 2.3 3.1 4 5.4 5c2.3 1.1 5.2 1.4 8.4 0.8c7.6-1.4 14.5-7 19.6-12.7c-5.1-5.7-12-11.3-19.6-12.7c-3.2-0.6-6-0.2-8.4 0.8c-2.3 1-4.1 2.7-5.4 5c-2.5 4.5-2.5 9.4 0 13.8zm96.8-58.3l-51.4 51.4l51.4 51.4l51.4-51.4z"/>
			</g>
		</g>
		<g id="Layer">
			<g id="Layer">
				<g id="Layer">
					<path id="Layer" class="s0" d="m338.8 62.5h10.9v42.2h51.3v-42.2h10.9v84.1h-10.9v-32.9h-51.3v32.9h-10.9z"/>
				</g>
			</g>
			<g id="Layer">
				<g id="Layer">
					<path id="Layer" fill-rule="evenodd" class="s0" d="m472.5 62.8h6.1l37.5 83.8h-11l-7.3-20.1h-45.7l-9.1 20.1h-11zm18.1 54.7l-7.5-17.3c-0.9-2.2-1.8-4.4-2.7-6.8l-2.3-6.6c-1.5-4.3-2.4-7.2-2.6-8.7h-0.7c-0.3 1.6-1 3.8-2.1 6.7l-3 7.6c-0.9 2.2-1.9 4.4-2.9 6.7l-8.7 18.6h32.5z"/>
				</g>
			</g>
			<g id="Layer">
				<g id="Layer">
					<path id="Layer" class="s0" d="m532.6 62.5h9.3l52.8 66.4v-66.4h9.1l1.8 84.1h-10.7l-51.4-66.9v66.9h-11v-84.1z"/>
				</g>
			</g>
			<g id="Layer">
				<g id="Layer">
					<path id="Layer" class="s0" d="m631.5 127.5c-1.8-3.1-3.2-6.5-4.3-10.1q-1.5-5.4-1.5-11.7c0-4.2 0.5-8.1 1.6-11.9c1.1-3.8 2.6-7.3 4.6-10.5c2-3.2 4.4-6.1 7.1-8.7c2.8-2.6 5.8-4.7 9.2-6.5c7.1-3.7 14.8-5.6 23.2-5.6c12.3 0 22.5 3.4 30.5 10.3l-6.1 8.3c-6.8-5.9-15.3-8.9-25.5-8.9c-9.2 0-17 3-23.5 9.1c-6.5 6.1-9.7 13.7-9.7 22.8q0 14.9 9.6 24.3c6.4 6.3 14.5 9.4 24.4 9.4q11.3 0 20.1-6.6c1.7-1.2 3.1-2.5 4.3-3.9v-8.1h-27.9v-11h38.4v38.4l-10.5-0.3v-8c-4.4 4-10.4 6.8-17.8 8.3c-0.9-0.1-5.9 0.9-9.5 0.9c-3.6 0-7.9-0.9-11-1.4c-3.8-0.6-7.2-2.2-10.4-4q-4.8-2.5-8.7-6.3c-2.5-2.4-4.7-5.2-6.6-8.3z"/>
				</g>
			</g>
			<g id="Layer">
				<g id="Layer">
					<path id="Layer" class="s0" d="m729.9 62.5h62.1v9.1h-51.2v21.9h45.7v9.1h-45.7v34.7h53v9.1h-64v-83.9z"/>
				</g>
			</g>
			<g id="Layer">
				<g id="Layer">
					<path id="Layer" fill-rule="evenodd" class="s0" d="m889 88.1c0 12.5-7 20.8-18.3 25.6l16.2 32.9h-12.5l-14.2-29.3c-3.8 0.6-7.2 0-11.4 0h-21.9l-0.2 29.2h-10.8v-84.1h33.9c12.2 0 21.3 1.7 27.4 5.1c7.3 4.2 11.8 10.9 11.8 20.6zm-32.1 20.1c8.7 0 7.9-1.2 12.1-3.7c5.2-3 9-8.3 9-15.5c0-9.4-3.7-15.5-14.6-15.5c-3.5 0-3.7 0-7.3 0h-29.2l-0.2 34.8h30.2z"/>
				</g>
			</g>
		</g>
	</g>
</svg>